<?xml version="1.0" standalone="no"?>
<!DOCTYPE svg PUBLIC "-//W3C//DTD SVG 1.1//EN" "http://www.w3.org/Graphics/SVG/1.1/DTD/svg11.dtd">
<svg xmlns="http://www.w3.org/2000/svg">
<metadata>Copyright (C) 2015 by original authors @ fontello.com</metadata>
<defs>
<font id="icons-ornua" horiz-adv-x="1000" >
<font-face font-family="icons-ornua" font-weight="400" font-stretch="normal" units-per-em="1000" ascent="850" descent="-150" />
<missing-glyph horiz-adv-x="1000" />
<glyph glyph-name="arrow-down" unicode="&#xe800;" d="m500 156c-23 0-41 8-57 24l-228 228c-15 16-24 36-24 57 0 21 9 41 24 56 30 30 82 30 113 0l172-172 173 172c30 30 82 30 112 0 15-15 24-35 24-56 0-21-9-41-24-57l-228-228c-17-16-34-24-57-24z m-229 349c-11 0-21-4-28-12-8-8-12-17-12-28 0-11 4-21 12-28l229-229c9-10 18-12 28-12 10 0 18 2 28 12l229 229c7 7 12 17 12 28 0 10-5 20-12 28-15 15-41 15-56 0l-201-201-201 201c-7 8-17 12-28 12z" horiz-adv-x="1000" />
<glyph glyph-name="minus-circle" unicode="&#xe801;" d="m288 270l0 0c-44 0-79 36-79 80 0 21 8 41 23 56s35 24 56 24l424 0c44 0 80-36 80-80 0-21-9-41-24-56-15-15-35-24-56-24l-424 0z m424 120l-424 0c-10 0-20-4-28-12-7-7-11-17-11-28 0-22 17-40 39-40l424 0c10 0 20 4 28 12 7 8 12 17 12 28 0 22-18 40-40 40z m-212-527c-268 0-487 219-487 487 0 268 219 487 487 487 268 0 487-219 487-487 0-268-219-487-487-487z m0 934c-246 0-447-201-447-447s201-447 447-447 447 201 447 447-201 447-447 447z" horiz-adv-x="1000" />
<glyph glyph-name="plus-circle" unicode="&#xe802;" d="m500 19c-21 0-41 8-56 23-15 15-24 35-24 56v172h-172c-44 0-79 36-79 80 0 21 8 41 23 56 15 16 35 24 56 24h172v172c0 44 36 79 80 79 21 0 41-8 56-23 16-15 24-35 24-56v-172h172c44 0 79-36 79-80 0-21-8-41-23-56s-35-24-56-24h-172v-172c0-44-36-79-80-79z m-252 371c-10 0-20-4-28-12-7-7-11-17-11-28 0-22 18-40 39-40h212v-212c0-10 4-20 12-28 7-7 17-11 28-11 22 0 40 17 40 39v212h212c10 0 20 4 28 12 7 7 11 17 11 28 0 22-17 40-39 40h-212v212c0 10-4 20-12 28-7 7-17 11-28 11-22 0-40-17-40-39v-212h-212z m252-527c-268 0-487 219-487 487 0 268 219 487 487 487 268 0 487-219 487-487 0-268-219-487-487-487z m0 934c-246 0-447-201-447-447s201-447 447-447 447 201 447 447-201 447-447 447z" horiz-adv-x="1000" />
<glyph glyph-name="cow" unicode="&#xe803;" d="m622 46c-26 0-29 19-36 56l-16 99c-1-3-3-6-4-9-7-17-15-34-18-51-3-18-2-37-1-56 0-9 0-17 0-25v-10h-74l14 199c-37 7-95 17-99 18-14 2-23 3-30 3-20 0-26-5-40-50-15-50-5-99 31-154l9-14-16-2c-14-1-25-3-33-3-27 0-33 15-47 46-19 45-38 89-58 135-44-44-54-95-34-166l4-13h-77v470c-7-1-9-7-9-25l0-3c0-25-1-50-1-75 0-42-1-83-2-124 0-12-4-24-8-37-2-6-4-13-6-21l-7-25-12 23c-24 47-25 52-16 93l1 5c3 13 3 26 2 40 0 7 0 14 0 21 1 28 0 51 0 71-1 50-2 78 15 95 18 19 52 21 118 21l107-1c91 0 183-1 274 1 42 1 84 5 125 9 15 1 30 3 44 4l4 76 46-30c17 19 38 28 65 28 14 0 28-2 42-4 10-2 20-4 30-4l35-3-84-45 126-136-3-6c-17-30-42-45-75-45l0 0c-5 0-10 0-15 1-13 1-24 2-34 2-49 0-84-16-112-49l-4-5c-45-54-88-105-90-176-1-30 2-62 5-92 2-14 3-28 4-42l1-10-9-1c-14-2-24-4-32-4z m-62 186l26-6 20-121c7-39 8-39 16-39 5 0 11 1 20 2-1 11-2 22-4 33-3 31-6 63-5 95 2 77 49 133 94 188l5 5c31 38 72 56 127 56 11 0 23-1 36-2 30-4 51 5 66 27l-134 145 49 26c0 0 0 0 0 0-14 2-26 4-39 4-24 0-41-8-55-28l-6-7-32 21-3-58-8-1c-18-1-35-3-53-5-41-4-84-8-126-9-92-2-184-1-275-1l-107 1c-62 0-91-2-103-15-12-11-11-37-10-80 0-20 1-44 0-73 0-6 0-13 0-19 1-15 1-30-2-45l-1-5c-7-29-8-35 3-57 3 11 6 20 6 28 1 42 2 83 2 124 0 25 1 51 1 76l0 3c0 16 0 48 40 45l9-1v-470h30c-18 77-1 135 54 184l10 9 6-13c22-51 43-99 64-148 13-32 15-34 28-34 4 0 9 1 15 1-33 55-41 105-25 158 13 43 23 64 59 64 8 0 18-1 33-4 5 0 75-13 108-19l9-2-13-195h32c0 4 0 9 0 14-1 20-2 40 2 61 3 19 11 37 19 55 3 8 6 16 9 23l3 9z" horiz-adv-x="1000" />
<glyph glyph-name="people" unicode="&#xe804;" d="m500-47c-24 0-47 4-69 12-35 12-35 53-35 66 0 51 0 102 0 153 0 9 0 9-7 10-28 6-48 32-48 66 0 97 0 175 0 246 1 42 27 68 68 69 21 0 42 1 63 1-41 12-71 49-71 94 0 27 10 52 29 71 19 19 44 29 71 29 27 0 52-10 71-29 19-19 29-45 29-71-1-44-31-82-72-94 21 0 43-1 64-1 42-1 67-27 67-70 0-81 0-163 0-244 0-36-14-54-55-69v-163c0-35-12-57-35-64-23-8-46-12-70-12z m1 603c-31 0-61 0-92-1-30-1-47-18-48-49 0-71 0-150 0-246 0-24 13-43 32-46 20-4 23-17 23-30 0-51 0-102 0-153 0-28 7-42 21-47 41-14 85-14 127-1 5 2 21 7 21 46v177l7 2c41 14 48 26 48 53 0 81 0 163 0 244 0 22-8 49-47 50-31 1-61 1-92 1z m0 194c-22 0-42-8-57-23-15-15-23-35-23-57 0-44 35-78 80-78h0c43 0 79 35 80 78 0 21-8 41-23 57-15 15-36 23-57 23z m335-730c-9 0-17 0-26 0-38 1-61 24-61 63 0 30 0 61 0 91l0 49c-36 12-47 29-47 69l0 32c0 54 0 107 0 161 0 47 23 70 70 70l14 0 20 0c-10 4-19 10-27 19-17 16-26 38-26 61 0 48 39 86 87 86 49-1 87-40 87-87 0-35-22-66-53-79 10 0 20 0 30 0l3 0c33 0 55-12 69-37l1-5v-256l-45-40v-10c0-15 0-33-1-52l0-20c0-21 0-44-2-66-2-27-21-45-49-47-14-2-29-2-44-2z m-50 515l-14 0c-36 0-50-14-50-50 0-54 0-107 0-161v-32c0-33 7-43 40-52l7-3 0-63c0-30 0-60 0-91 0-28 14-42 42-43 22 0 45 0 68 1 17 2 29 13 30 30 2 21 2 43 2 64l0 20c1 19 1 37 1 52l0 19 45 40v244c-10 17-26 25-50 25-19 0-36 0-53 0l-68 0z m55 166c-38 0-68-30-68-66 0-17 7-34 20-47 12-13 30-21 47-21h0c36 1 67 31 67 67 0 37-29 66-66 67l0 0z m-687-681c-8 0-16 0-23 0-38 1-60 24-60 62-1 33-1 66-1 99l0 41c-21 5-36 19-46 43l-1 4 1 240c10 30 33 46 68 46 12 0 24 0 35 0-10 4-19 10-27 19-17 16-26 38-25 62 0 47 39 85 86 85 24 0 46-9 62-25 17-17 25-39 25-63 0-34-22-65-52-78l7 0 29 0c44-1 67-23 67-68 1-45 1-89 0-133l0-60c0-43-9-58-46-72 0-42 0-84-1-126 0-11 0-20-1-29-4-25-23-43-47-45-15-1-32-2-50-2z m-111 251c9-19 20-28 38-30l9-1 0-59c0-33 0-66 1-98 0-28 13-42 40-43 25 0 50 0 72 2 14 1 25 12 28 28 1 8 1 16 1 26 0 45 0 89 0 134v7l7 2c35 11 40 18 40 55l0 60c1 44 1 88 0 133 0 34-14 48-47 48l-29 0-59 0c-17 0-34 0-51 0 0 0 0 0 0 0-27 0-42-10-50-31v-233z m119 430c-37 0-67-29-67-65-1-18 6-35 19-48 13-13 29-20 47-21h1c36 0 66 31 66 67 0 18-6 35-19 47-12 13-29 20-47 20z" horiz-adv-x="1000" />
<glyph glyph-name="gears" unicode="&#xe805;" d="m532-92c-4 0-9 0-14 3-6 5-8 12-10 18 0 2-1 4-1 5-5 13-16 17-28 12-2-1-3-2-5-3-5-2-10-5-16-5l-4 0c-7 1-12 7-16 12-2 1-3 3-4 4-15 15-16 19-7 38 4 9 5 16 3 21-2 5-8 9-17 12-3 1-6 2-10 3l-11 4v54l6 2c3 1 6 2 9 3 5 2 10 3 15 6 8 3 11 13 8 21 0 1-1 3-1 4-1 2-2 4-3 6-3 5-6 12-5 19 1 7 7 12 12 16 2 2 3 3 4 4 13 12 19 16 38 7 6-3 11-4 15-4 5 0 12 2 18 17 7 20 11 23 32 23 25 0 28-3 37-26 5-13 16-18 28-12 24 11 30 7 45-8 15-15 16-20 6-39-2-6-5-13-2-20 2-5 7-9 15-12 21-7 23-11 23-32 0-25-2-29-25-37-7-3-11-7-13-11-2-5-2-11 1-17 1-2 2-3 3-5 3-6 7-12 5-20-1-7-7-12-12-16-2-2-3-3-4-4-14-13-21-16-39-6-14 7-28 1-32-13-5-19-9-24-28-24l-3 0c-2 1-4 0-6 0-3 0-5 0-7 0z m-43 60c16 0 30-10 36-27 1-2 2-4 3-7 0-2 1-6 2-7l2 1c1 0 3 0 5 0 2 0 5 0 7 0h4c1 0 6 0 7 1 0 0 1 6 2 8 7 26 36 39 60 25 3-1 8-4 9-4 0 1 3 4 6 7 2 2 4 3 6 5 2 1 5 4 6 5-1 1-3 4-4 6-1 2-2 4-3 7-5 11-6 22-1 32 4 10 12 18 23 22 6 2 12 5 13 6 0 1 0 7 0 13 0 4 0 9 0 10-1 0-5 2-10 3-16 7-24 16-27 24-3 7-5 19 3 35 2 5 4 9 4 10 0 1-3 4-7 7-4 4-8 8-9 9-2 0-7-3-13-5-22-10-46 0-55 23-2 5-4 11-5 12-2 1-20 1-23 0 0 0-2-5-3-9-9-25-25-30-37-30-7 0-15 2-23 6-4 1-8 3-9 4-1-1-4-4-7-7-1-2-3-3-5-5-2-1-5-4-5-5 0-1 2-4 3-6 1-2 2-5 3-7 1-2 2-4 2-6 6-18-1-37-18-45-6-3-12-5-18-7-1 0-1 0-1 0v-25c2-1 5-2 8-3 15-5 24-13 29-24 4-10 3-23-4-36-2-4-3-8-4-10 1 0 4-3 7-6 2-1 3-3 5-5 1-2 4-5 5-6 1 1 4 3 6 4 2 1 5 2 7 3 6 3 12 4 18 4z m53 29c-34 0-61 28-61 62v0c0 34 27 61 61 61 16 0 32-6 43-18 12-11 18-27 18-43 0 0 0 0 0 0 0-34-28-62-61-62z m-1 21c23-2 42 18 42 41 0 0 0 0 0 0 0 11-4 21-12 29-8 8-18 12-29 12-20 0-37-14-40-33-1-2-1-5-1-8 0-22 18-41 40-41z m258 116c-4 0-10 0-15 4-7 4-9 12-11 20-1 2-1 4-2 6-6 15-20 21-35 14-2-1-3-2-5-3-6-3-12-6-19-6l-3 0c-8 1-14 8-19 14-1 1-3 3-4 4-17 17-17 22-8 43 6 10 7 18 4 25-2 6-9 11-20 15-4 1-8 2-12 4l-13 3v61l7 2c3 2 7 3 10 4 7 2 13 3 18 6 9 5 14 16 10 27 0 1-1 3-1 4-2 3-3 5-4 7-3 7-7 14-6 22 2 8 9 13 14 18 2 1 3 3 5 4 14 15 20 18 42 8 7-4 13-5 18-5 4 0 15 0 22 21 9 23 12 25 36 25 28 0 32-3 42-29 6-15 19-21 35-14 25 12 31 9 49-9 17-17 18-22 8-44-5-10-6-18-3-24 3-6 9-11 19-15 23-8 25-12 25-36 0-28-2-32-29-42-7-3-13-7-15-14-3-6-2-13 1-20 1-2 2-4 3-6 4-6 8-14 6-22-1-8-8-13-13-18-2-1-4-3-5-4-15-15-23-19-44-7-16 9-34 1-39-16-6-21-10-26-31-26l-4 0c-2-1-4-1-7-1-2 0-5 0-7 0z m-4 20c1 0 5 0 10 0 3 0 5 1 8 1h4c2 0 7 0 9 0 0 1 2 8 3 11 9 29 41 43 68 28 3-1 9-5 11-5 1 1 5 5 8 8 3 3 5 4 7 6 2 2 6 6 7 7 0 1-3 6-4 8-2 3-3 5-4 8-6 12-6 25-2 36s15 20 27 25c16 6 16 6 16 23 0 5 0 11 0 13-1 0-7 2-12 4-15 6-26 15-31 26s-3 26 4 41c2 5 4 10 4 12 0 1-4 5-8 9-6 5-11 10-12 10-2 0-8-2-15-5-26-12-52-1-62 25-6 16-6 16-23 16-5 0-11 0-12 0-1-1-3-7-5-12-10-28-28-34-41-34-8 0-17 2-26 7-5 2-10 4-12 4 0 0-4-4-8-8-2-2-4-3-6-5-2-2-6-6-7-7 0-1 2-6 4-8 1-3 3-6 4-8 1-3 2-5 2-7 7-20-2-42-20-51-7-3-14-5-21-7-1-1-2-1-3-1v-32c4-1 8-2 11-3 17-6 28-15 33-27 4-11 3-25-4-41-3-5-5-10-5-11 0-1 5-5 8-9 2-1 4-3 5-5 2-3 6-7 7-7 2 0 6 2 9 4 2 1 5 2 7 3 25 12 52 1 62-25 1-3 1-5 2-8 1-3 2-8 3-9 0 0 0 0 0 0z m-473 9c-6 0-16 0-23 5-10 7-14 20-17 32-1 5-2 9-4 13-12 33-43 45-76 31-3-1-7-4-11-6-11-6-23-12-35-10-12 2-21 12-29 22-3 4-6 7-9 10-28 28-29 33-12 69 10 21 12 39 7 53-6 14-21 26-44 34-7 2-14 4-22 7l-17 5v100l7 3c6 2 12 4 18 5 12 4 24 8 35 13 21 11 31 36 23 61-1 3-2 6-3 10-2 4-4 8-6 12-7 11-13 22-10 34 2 12 12 21 22 29 3 3 7 6 9 9 16 15 24 23 36 23 9 0 18-4 34-11 42-20 70-9 86 35 14 39 18 41 59 41 48 0 52-2 69-48 13-33 44-46 77-32 18 9 29 14 39 14 15 0 24-10 43-29 29-29 30-34 12-71-9-20-11-38-5-52 6-14 20-25 40-33 40-14 42-18 42-59 0-48-2-52-48-69-16-7-28-17-34-31-5-13-5-29 3-45 1-4 3-8 6-11 6-12 13-23 10-35-2-12-12-21-22-29-3-3-7-6-10-9-16-16-24-24-37-24-9 0-19 5-34 13-35 19-74 2-84-36-11-35-16-42-52-42l-5 0c0 0 0 0-1 0-5 0-9 0-13-1-5 0-10 0-14 0z m-93 107c31 0 56-19 68-50 2-4 3-9 4-14 3-9 5-18 9-21 4-3 14-3 24-2 5 1 10 1 14 1h7c24 0 24 0 32 28 10 35 39 58 73 58 14 0 28-4 41-11 11-6 20-10 24-10 4 0 10 5 22 17 4 4 8 8 12 11 7 6 15 12 16 17 1 5-4 14-9 22-2 4-5 8-7 13-9 21-10 42-2 61 8 18 24 33 45 41 35 14 35 14 35 51 0 30 0 30-29 40-25 10-43 25-51 44-8 20-6 43 5 68 13 28 13 28-8 49-17 17-23 23-29 23-6 0-15-5-31-12-44-19-87-1-104 43-13 35-13 35-51 35-29 0-29 0-39-28-17-48-47-58-69-58-14 0-29 4-45 12-12 5-20 9-25 9-4 0-9-5-21-17-4-4-7-7-11-10-7-6-15-12-16-18-1-4 4-13 8-21 3-4 5-9 7-13 2-5 3-8 5-12 10-34-4-70-34-84-12-7-26-11-38-15-4-1-7-2-11-3v-71l3-1c8-3 15-5 23-7 28-10 47-25 55-45 8-19 6-43-7-70-12-26-12-26 8-46 4-3 7-7 10-11 6-7 12-14 18-15 6-1 14 4 22 8 4 2 8 5 12 6 12 6 23 8 35 8z m581-32h0l0 0c-38 0-69 31-69 70 0 38 31 69 69 69 39 0 70-31 70-69-1-39-32-70-70-70z m0 20v-10l0 10c27 0 49 22 50 49 0 28-22 50-50 50-25 0-46-19-49-43 0-2 0-4 0-6 0-27 22-50 49-50v-10 10 0 0z m-466 99h0l0 0c-32 0-63 13-86 36-23 23-35 53-35 85 0 1 0 1 0 1 0 66 54 120 121 120 32 0 62-12 85-35 23-23 35-54 35-86 0-67-54-121-120-121z m0 20v-10l0 10c55 0 100 45 100 100 0 28-10 54-29 73-19 19-44 29-71 29-49 0-90-35-99-81-2-6-2-12-2-19 0 0 0 0 0-1 0 0 0 0 0 0 0 0 0 0 0 0 0-27 10-52 30-71 19-19 44-30 71-30l0-10 0 10v0 0z" horiz-adv-x="1000" />
<glyph glyph-name="basket" unicode="&#xe806;" d="m872 702c-75 0-98-74-98-75 0 0-6-19-16-51h-726l98-352h513c-37-98-91-90-95-90h-411v-20l409 0c1 0 4 0 8 0 20 0 75 9 110 109l2 7c35 105 127 391 127 391 0 1 19 61 79 61h106v20h-106z m-577-320h216l-18-139h-183l-15 139z m-2 20l-16 155h256l-20-155h-220z m-36 155l16-155h-172l-43 155h199z m-150-175h168l15-139h-145l-38 139z m543-139h-136l17 139h163l-44-139z m51 159h-168l20 155h197l-49-155z m-470-307c-35 0-63-28-63-62 0-35 28-63 63-63s62 28 62 63c0 34-28 62-62 62z m0-105c-24 0-43 19-43 43s19 42 43 42c23 0 42-19 42-42s-19-43-42-43z m313 105c-35 0-63-28-63-62 0-35 28-63 63-63 34 0 63 28 63 63 0 34-29 62-63 62z m0-105c-24 0-43 19-43 43s19 42 43 42 43-19 43-42-20-43-43-43z" horiz-adv-x="1000" />
<glyph glyph-name="power" unicode="&#xe807;" d="m500-127c-263 0-477 214-477 477 0 263 214 477 477 477 263 0 477-214 477-477 0-263-214-477-477-477z m0 934c-252 0-457-205-457-457s205-457 457-457 457 205 457 457-205 457-457 457z m-188-791l110 276-128-29 148 354 252 55-150-257 179 38-411-437z m143 304l-85-213 295 313-161-34 150 257-197-43-130-309 128 29z" horiz-adv-x="1000" />
<glyph glyph-name="meter" unicode="&#xe808;" d="m500-127c-263 0-477 214-477 477 0 263 214 477 477 477 263 0 477-214 477-477 0-263-214-477-477-477z m0 934c-252 0-457-205-457-457 0-252 205-457 457-457 252 0 457 205 457 457 0 252-205 457-457 457z m0-545c-48 0-88 40-88 88 0 46 36 84 81 88v120h20v-121c42-6 75-43 75-87 0-48-40-88-88-88z m0 156c-37 0-68-31-68-68s31-68 68-68c37 0 68 31 68 68s-31 68-68 68z m321-78h-75v20h55c-1 43-12 84-30 121l-37-22-10 18 38 22c-23 40-55 74-93 100l-23-41-17 10 24 42c-40 23-84 37-132 41l0-51-20 0 0 51c-49 1-95-11-136-32l26-45-17-10-27 46c-40-24-75-58-100-97l45-27-10-17-46 26c-22-40-35-86-37-135h55v-20h-75v10c0 177 144 321 321 321 177 0 321-144 321-321v-10z" horiz-adv-x="1000" />
<glyph glyph-name="water" unicode="&#xe809;" d="m547-134c-157 0-285 128-286 285 0 86 60 254 111 371 27 61 118 259 171 260 94 0 289-484 290-628 1-158-127-287-285-288h-1z m-4 896c-21 0-82-87-152-248-55-125-110-286-110-363 1-146 120-265 266-265v-10l1 10c147 1 266 121 265 268-1 159-200 608-270 608z m-361-346c-29 0-57 9-81 26-63 44-79 133-34 196 39 56 225 172 277 172 5 0 10-2 13-4 42-30-23-278-59-330-27-38-70-60-116-60z m164 373c-44 0-225-108-263-162-38-55-25-131 30-169 20-14 44-22 69-22 40 0 77 19 99 52 44 62 86 286 65 301l0 0z m494-266c-37 0-70 19-90 50-26 44-46 187-36 229 2 8 5 13 10 16 3 2 7 3 11 3 41 0 167-94 194-138 30-50 15-114-35-144-16-10-35-16-54-16z m-105 278c-11-15 6-173 33-217 15-26 42-41 72-41 15 0 31 5 44 13 40 24 52 76 28 116-24 40-147 129-177 129z" horiz-adv-x="1000" />
<glyph glyph-name="trash" unicode="&#xe80a;" d="m501-127c-74 0-148 0-222 0-43 0-72 27-76 70-5 54-10 109-15 163l-2 26c-8 85-15 170-23 255l-16 188h707l-55-607c-1-11-1-21-3-31-6-40-34-64-74-64-74 0-148 0-221 0z m-333 682l15-166c8-85 15-170 23-255l2-26c5-54 10-109 15-163 3-33 24-52 56-52 148 0 295 0 443 0 30 0 49 17 54 47 2 10 3 20 3 29l1 14 52 572h-664z m331-608l0 0c-13 0-24 6-31 17-5 8-8 18-8 29 0 63 0 125 0 187l0 276c0 28 16 47 40 47h0c24 0 41-19 41-47l0-463c0-28-16-40-29-44-4-1-9-2-13-2z m1 546v-10c-15 0-20-14-20-27l0-276c0-62 0-124 0-187 0-7 2-14 5-18 3-5 8-8 14-8l0 0c2 0 4 0 7 1 7 2 15 7 15 25l0 463c0 16-8 27-21 27l0 10z m155-546c-13 0-24 7-32 18-6 9-7 20-7 26 0 24 12 247 20 396l4 75c1 23 19 41 40 41l1 0c11 0 21-5 29-13 7-8 11-19 11-32-2-40-4-80-6-120l-1-30c-4-64-7-128-10-191l-7-127c-2-27-17-37-30-41-4-1-8-2-12-2z m25 546v-10c-10 0-19-10-20-22l-4-76c-8-147-20-371-20-393 0-7 2-12 4-16 5-8 12-11 21-8 7 2 15 7 16 23l7 127c3 63 6 127 10 191l1 30c2 40 4 80 6 120 0 7-2 13-6 18-4 4-9 6-14 6l-1 10z m-336-546l0 0c-22 0-39 18-40 42l-22 429c-1 12-2 24-2 36-1 15 3 28 11 37 7 7 17 11 27 12l2 0c22 0 39-19 41-44 2-50 5-99 7-148l15-294c1-9 2-17 2-26 0-13-4-24-12-32-8-7-18-12-29-12z m-24 546l-1-10c-5 0-10-2-13-6-5-5-7-13-6-22 0-12 1-24 1-36l23-429c1-14 9-23 20-23l0 0c6 0 11 2 14 6 5 4 7 11 7 18 0 8-1 16-2 25l-1 22h0l-14 272c-2 49-5 98-7 148-1 14-10 25-21 25v10z m566 104h-771v10c0 7 0 13 0 19-1 14-1 28 1 42 4 31 29 50 64 50l290 0 97 0 167 0 84 0c44 0 67-24 68-67 0-10 0-19 0-29l0-25z m-751 20h731l0 5c0 10 0 19 0 28-1 33-16 48-48 48l-84 0-554 0c-25 0-42-12-44-33-2-12-2-25-1-38 0-3 0-6 0-10z m470 123h-209v10c0 4 0 8 0 12-1 10-1 20 0 30 4 21 18 34 39 34 43 1 87 1 130 0 22 0 39-17 40-42 1-7 1-15 1-22l-1-22z m-189 20h170l0 2c0 7 0 14-1 21 0 14-9 23-20 23-43 1-87 1-130 0-14 0-18-11-19-17-1-8-1-17 0-26 0-1 0-2 0-3z" horiz-adv-x="1000" />
<glyph glyph-name="arrow-next" unicode="&#xe80b;" d="m510 41c-21 0-41 9-56 24-31 31-31 81 0 112l93 93h-286c-44 0-80 36-80 80s36 80 80 80h285l-92 92c-31 32-31 82 0 113 30 30 83 30 113 0l228-228c16-16 24-36 24-57s-8-41-24-57l-228-228c-15-15-35-24-57-24z m-249 349c-22 0-40-18-40-40s18-40 40-40h382l-161-161c-15-15-15-41 0-56 15-15 41-15 56 0l229 229c10 10 12 21 12 28s-2 18-12 28l-229 229c-15 15-41 15-56 0-15-16-15-41 0-56l161-161h-382z m235-521c-268 0-487 218-487 487s219 486 487 486c268 0 487-218 487-486s-219-487-487-487z m0 933c-246 0-447-200-447-446 0-247 201-447 447-447s447 200 447 447c0 246-201 446-447 446z" horiz-adv-x="1000" />
<glyph glyph-name="arrow-prev" unicode="&#xe80c;" d="m482 41c21 0 41 9 56 24 31 31 31 81 0 112l-93 93h286c44 0 80 36 80 80s-36 80-80 80h-286l93 92c31 32 31 82 0 113-30 30-83 30-113 0l-228-228c-16-16-24-36-24-57s8-41 24-57l228-228c15-15 35-24 57-24z m249 349c22 0 40-18 40-40s-18-40-40-40h-382l161-161c15-15 15-41 0-56-15-15-41-15-56 0l-229 229c-10 10-12 21-12 28s2 18 12 28l229 229c15 15 41 15 56 0 15-16 15-41 0-56l-161-161h382z m-235-521c268 0 487 218 487 487s-219 486-487 486c-268 0-487-218-487-486s219-487 487-487z m0 933c246 0 447-200 447-446 0-247-201-447-447-447-246 0-447 200-447 447 0 246 201 446 447 446z" horiz-adv-x="1000" />
<glyph glyph-name="open-menu" unicode="&#xe80d;" d="m792 256h-584c-52 0-95 42-95 94 0 25 10 49 28 67 18 17 41 27 67 27h584c52 0 95-42 95-94 0-25-10-49-28-66-18-18-41-28-67-28z m-584 148c-15 0-28-5-39-16-10-10-16-23-16-38 0-30 25-54 55-54h584c15 0 29 6 39 16 10 10 16 24 16 38 0 30-25 54-55 54h-584z m584 136h-584c-52 0-95 42-95 94 0 25 10 49 28 66 18 18 41 28 67 28l584 0c52 0 95-42 95-94 0-25-10-49-28-67-18-18-42-27-67-27z m0 148l-584 0c-15 0-28-6-39-16-10-10-16-24-16-38 0-30 25-54 55-54h584c15 0 29 5 39 16 10 10 16 24 16 38 0 30-25 54-55 54z m-584-716l0 0c-52 0-95 42-95 94 0 25 10 49 28 67 18 18 41 27 67 27h584c52 0 95-42 95-94 0-25-10-48-28-66-18-18-42-28-67-28l-584 0z m0 148c-15 0-29-5-39-15-10-11-16-24-16-39 0-30 25-54 55-54l584 0c15 0 29 6 39 16 10 10 16 24 16 38 0 30-25 54-55 54h-584z" horiz-adv-x="1000" />
<glyph glyph-name="close-menu" unicode="&#xe80e;" d="m238-20c-29 0-56 11-76 32-21 20-32 47-32 76 0 29 11 56 32 77l185 185-185 186c-21 20-32 47-32 76s11 56 32 76c41 41 112 41 152 0l186-185 185 185c41 41 112 41 153 0 21-20 32-47 32-76 0-29-11-56-32-76l-185-186 185-185c21-21 32-48 32-77 0-29-11-56-32-76-20-21-47-32-76-32l0 0c-29 0-56 11-77 32l-185 185-186-185c-20-21-47-32-76-32z m0 700c-18 0-35-7-48-20-13-13-20-30-20-48 0-18 7-35 20-48l214-214-214-214c-13-13-20-30-20-48 0-18 7-35 20-48 26-26 70-26 96 0l214 214 214-214c26-26 71-25 96 0 13 13 20 30 20 48 0 18-7 35-20 48l-214 214 214 214c13 13 20 30 20 48 0 18-7 35-20 48-26 26-71 26-96 0l-214-214-214 214c-13 13-30 20-48 20z" horiz-adv-x="1000" />
<glyph glyph-name="download" unicode="&#xe80f;" d="m288 60l0 0c-44 0-79 36-79 80 0 22 8 42 23 57 15 15 35 23 56 23h424c44 0 80-36 80-80 0-21-9-41-24-56-15-15-35-24-56-24l-424 0z m0 120c-10 0-20-4-28-12-7-7-11-17-11-28 0-22 17-40 39-40l424 0c10 0 20 5 28 12 7 8 12 18 12 28 0 22-18 40-40 40h-424z m212 97c-21 0-39 7-53 22l-213 212c-14 14-22 33-22 53s8 39 22 54c29 28 79 28 107 0l159-159 159 159c28 28 78 28 107 0 14-15 22-34 22-54s-8-39-22-53l-212-212c-15-15-33-22-54-22z m-212 323c-10 0-19-4-25-11-7-6-11-15-11-25s4-18 11-25l212-212c14-15 36-15 50 0l212 212c7 7 11 16 11 25s-4 19-11 25c-13 14-36 14-50 0l-187-187-187 187c-7 7-16 11-25 11z" horiz-adv-x="1000" />
<glyph glyph-name="arrow-up" unicode="&#xe810;" d="m500 41c-19 0-36 7-49 21-13 13-21 30-21 49l0 310-109-110c-27-26-73-26-99 0-27 27-27 71 0 99l228 228c14 14 31 21 50 21s36-7 50-21l228-228c27-28 27-72 0-99-26-26-72-26-99 0l-109 110 0-310c0-19-8-36-21-49-13-14-30-21-49-21z m-50 428l0-358c0-13 6-26 15-35 19-19 52-19 70 0 10 9 15 22 15 35l0 358 144-144c18-19 51-19 70 0 19 20 19 51 0 71l-229 228c-10 10-21 15-35 15s-25-5-35-15l-229-228c-19-20-19-51 0-71 19-19 52-19 71 0l143 144z m50-596c-263 0-477 214-477 477 0 263 214 477 477 477 263 0 477-214 477-477 0-263-214-477-477-477z m0 934c-252 0-457-205-457-457 0-252 205-457 457-457 252 0 457 205 457 457 0 252-205 457-457 457z" horiz-adv-x="1000" />
<glyph glyph-name="globe" unicode="&#xe811;" d="m500-127c-263 0-477 214-477 477 0 263 214 477 477 477s477-214 477-477c0-263-214-477-477-477z m0 934c-252 0-457-205-457-457 0-252 205-457 457-457s457 205 457 457c0 252-205 457-457 457z m20-870v192h156l-5-13c-33-93-83-157-138-175l-13-4z m20 172v-143c41 20 80 71 107 143h-107z m-63-171l-13 4c-54 20-103 83-135 174l-4 13h152v-191z m-124 171c27-70 64-121 104-142v142h-104z m17-154l-34 15c-70 30-131 80-175 143l-11 16h130l2-7c17-54 39-100 66-137l22-30z m-181 154c33-43 75-79 123-105-19 31-34 66-47 105h-76z m441-154l22 30c27 37 49 83 66 137l2 7h130l-11-16c-44-63-105-113-175-143l-34-15z m105 154c-13-39-28-74-47-105 48 26 90 62 123 105h-76z m138 63h-141l2 12c10 46 15 94 17 144l0 10h163l-1-11c-2-52-15-102-37-150l-3-5z m-117 20h105c17 40 28 82 32 126h-123c-1-44-6-86-14-126z m-69-20h-167v166h188l0-11c-1-51-8-101-19-148l-2-7z m-147 20h132c8 40 14 82 16 126h-148v-126z m-63-20h-164l-2 7c-11 47-18 97-19 148l0 11h185v-166z m-148 20h128v126h-145c2-44 8-86 17-126z m-61-20h-141l-3 5c-22 48-35 98-37 150l-1 11h163l0-10c2-50 7-98 17-144l2-12z m-129 20h105c-8 40-13 82-14 126h-123c4-44 15-86 32-126z m774 188h-163l0 10c-2 52-10 103-21 150l-3 12h135l3-5c26-48 43-101 48-156l1-11z m-144 20h122c-6 47-20 91-42 132h-98c10-42 16-86 18-132z m-61-20h-188v172h161l2-7c13-48 22-100 24-154l1-11z m-168 20h147c-3 47-10 91-21 132h-126v-132z m-63-20h-185l1 11c3 54 11 106 24 154l2 7h158v-172z m-164 20h144v132h-123c-11-41-18-86-21-132z m-63-20h-163l1 11c5 55 22 108 48 156l3 5h135l-3-12c-11-47-18-98-21-150l0-10z m-141 20h122c2 46 8 90 18 132h-98c-22-41-36-85-42-132z m725 195h-121l-3 7c-15 43-35 82-58 113l-22 30 34-15c61-26 115-67 157-119l13-16z m-107 20h64c-29 32-64 60-103 81 15-24 28-51 39-81z m-60-20h-147v168l13-4c50-16 96-70 129-150l5-14z m-127 20h97c-26 59-61 102-97 119v-119z m-63-20h-144l5 14c32 78 77 131 126 149l13 4v-167z m-114 20h94v118c-36-19-69-60-94-118z m-76-20h-121l13 16c42 52 96 93 157 119l34 15-22-30c-23-31-43-70-58-113l-3-7z m-78 20h64c11 30 24 57 39 81-39-21-74-49-103-81z" horiz-adv-x="1000" />
<glyph glyph-name="growth" unicode="&#xe812;" d="m387-127c-19 0-38 8-51 21-14 14-21 33-21 54 0 41 0 82 0 123l0 213c0 14 2 33 15 50 14 18 33 28 57 28 37 0 75 0 112 0 40 0 68-26 71-66 1-8 1-15 1-23v-60c0-81 0-162 0-242 0-12 0-24-1-35-2-34-32-62-66-62l-11 0c-10 0-20 0-30 0-24 0-48 1-72-1l-4 0z m62 469c-21 0-41 0-62 0-18 0-31-7-42-20-7-10-10-21-10-38l0-213c0-41 0-82 0-123 0-16 5-30 15-40 9-9 23-15 37-15l3 0c24 2 49 1 73 1 10 0 20 0 30 0l11 0c24 0 44 20 46 43 1 11 1 23 1 34l0 302c0 7 0 14-1 21-2 29-22 48-51 48-17 0-34 0-50 0z m-258-468l-40 0-38 0-19 0c-40 0-69 29-69 69 0 25 0 50 0 75l0 38c0 42 24 70 64 72 40 2 82 2 127 0 36-2 61-27 63-63 2-42 2-86-1-131-2-35-30-60-67-60l-20 0z m-40 20h59c27 0 47 17 48 41 3 44 3 88 1 129-2 26-19 43-45 44-41 2-84 2-124 0-29-2-45-21-45-52l0-38c0-25 0-50 0-75 0-29 20-49 49-49l19 0 38 0z m575-20l-45 0c-45 0-73 28-73 72 0 70 0 140 0 210v353c0 2 0 4 0 6-2 0-4 0-6 0l-43 0c-12 0-25 0-38 0-9 1-19 6-25 12-11 13 0 27 4 33l203 248c21 25 42 25 62 0l201-245c2-3 5-5 5-9l2-4c2-6 4-14 1-21-4-8-16-13-25-14-10 0-20 0-31 0l-26 0-16 0-13 0c-1 0-1 0-2 0 0-2 0-5 0-8l0-10c0-102 0-204 0-305l0-244c0-37-19-63-53-72-6-1-13-1-19-1l-63-1z m-128 661l4 0c22 0 26-5 26-26v-353c0-70 0-140 0-210 0-33 20-52 53-52l45 0 63 0c5 0 10 1 14 2 25 6 38 24 38 52l0 244c0 101 0 203 0 305l0 10c0 11 0 18 5 23 5 5 12 5 17 5l16 0 13 0 26 0c10 0 20 0 30 0 3 0 7 2 8 4l0 0c-1 0-2 3-2 5-1 2-1 3-2 5l-2 2-200 244c-5 6-11 12-16 12-5 0-11-6-15-11l-203-249c-1-1-5-6-5-7 2-2 7-5 11-5 13 0 25 0 37 0l39 0z" horiz-adv-x="1000" />
<glyph glyph-name="market" unicode="&#xe813;" d="m900-127l-288 0c-30 0-55 25-55 55 0 31 25 56 55 56l155 0-183 182c-11 11-16 25-16 39s5 29 16 39c21 21 57 21 78 0l183-182-1 154c0 30 25 55 56 55 30 0 55-25 55-55v-288c0-7-1-14-4-20-3-7-7-13-12-19-5-4-11-8-17-11l0 0c0 0-1 0-1-1v0l-1 0c-7-2-13-4-20-4z m-288 91c-19 0-35-16-35-36 0-19 16-35 35-35l288 0c3 0 7 1 11 2l1 1 3 1c2 1 7 3 10 7 3 3 6 7 7 11 2 5 3 9 3 13v288c0 19-16 35-35 35-20 0-36-16-36-35l1-202-217 216c-14 14-37 14-50 0-7-6-11-15-11-24 0-10 4-19 11-25l217-217-203 0z m-224-91h-288c-6 0-13 2-20 4-7 3-14 7-19 12-5 6-9 12-12 19-3 7-4 14-4 20v288c0 30 25 55 55 55 31 0 56-25 56-55v-154l182 182c21 21 58 21 78 0 11-10 17-24 17-38 0-15-6-29-17-40l-182-182h154c30 0 55-25 55-56 0-30-25-55-55-55z m-288 378c-19 0-35-16-35-35v-288c0-4 1-8 3-13 2-4 4-8 8-11 3-4 7-6 11-8 5-2 9-3 13-3h288c19 0 35 16 35 35 0 20-16 36-35 36h-203l217 217c7 6 11 15 11 25 0 9-4 18-11 24-13 14-36 14-49 0l-217-216v202c0 19-16 35-36 35z m800 178c-31 0-56 25-56 55v154l-182-182c-21-21-57-21-78 0-22 21-22 56 0 78l182 182h-154c-30 0-55 25-55 56 0 30 25 55 55 55h288c7 0 13-2 20-4 8-3 14-7 19-12 5-6 9-12 12-18l0-3c3-5 4-12 4-18l0-288c0-30-25-55-55-55z m-36 258v-203c0-19 16-35 36-35 19 0 35 16 35 35l0 288c0 4-1 8-3 12-2 5-4 9-7 12-3 4-7 6-12 8-4 2-9 3-13 3h-288c-19 0-35-16-35-35 0-20 16-36 35-36h203l-217-216c-14-14-14-37 0-50 13-14 36-14 50 0l216 217z m-764-258c-30 0-55 25-55 55l0 288c0 6 1 13 4 20 3 7 7 13 12 18 5 6 12 10 19 13 7 2 14 4 20 4h288c30 0 55-25 55-55 0-31-25-56-55-56h-154l182-182c22-22 22-57 0-78-21-21-57-21-78 0l-183 182v-154c1-30-24-55-55-55z m0 378c-4 0-8-1-13-3-4-2-8-4-12-8-3-3-5-7-7-11-2-5-3-9-3-13l0-288c0-19 16-35 35-35 20 0 36 16 36 35v203l217-217c13-14 36-14 49 0 14 13 14 36 0 50l-217 216h203c19 0 35 16 35 36 0 19-16 35-35 35h-288z" horiz-adv-x="1000" />
<glyph glyph-name="value" unicode="&#xe814;" d="m501-127c-40 0-80 4-119 12l-8 2v337h-299l-2 8c-7 39-11 78-11 117 0 40 4 80 11 119l2 8h299v337l8 2c79 16 159 15 236 0l8-2v-337h299l2-8c7-39 11-78 11-117 0-40-4-80-11-119l-2-8h-299v-337l-8-2c-39-8-78-12-117-12z m-107 30c69-13 141-13 212 0v341h303c6 35 9 71 9 107 0 35-3 70-9 105h-303v341c-69 13-141 13-212 0v-341h-303c-6-35-9-71-9-107 0-35 3-70 9-105h303v-341z" horiz-adv-x="1000" />
<glyph glyph-name="quality" unicode="&#xe815;" d="m500-127c-17 0-34 7-49 21-13 12-25 24-38 36-10 9-19 12-31 9-17-5-33-10-50-14-42-12-76 7-90 48-2 7-5 14-7 21-3 9-6 17-9 25-4 13-12 20-25 23-7 2-14 3-22 5-9 2-18 4-28 6-38 8-61 38-57 76 2 19 5 37 8 54 3 16-1 27-13 36-10 8-21 17-31 26l-8 7c-30 26-35 64-12 96 10 15 20 29 31 43 8 11 10 21 5 33-6 15-13 31-19 46l-2 6c-14 34-1 70 30 87 17 10 35 18 52 26 12 6 18 14 19 28l2 15c1 12 2 25 3 37 2 38 32 66 70 66l32-1c30-8 51 3 66 34 4 8 9 15 13 22l5 6c20 30 59 39 91 22 15-8 29-17 43-25l7-4c10-5 19-5 29 1 15 8 30 17 46 26 36 20 73 11 96-22 7-11 14-22 21-32l8-13c7-11 15-16 27-16 21 1 39 2 58 2 38 0 68-29 70-67 1-18 3-35 5-52 1-13 7-22 19-27 12-5 24-11 35-17l11-5c37-19 51-55 35-95l-20-49c-4-11-3-20 4-30l12-17c6-9 13-17 19-25 24-33 20-73-11-99-13-12-26-23-40-33-11-9-14-20-12-34l1-5c2-17 5-34 7-51 4-38-19-68-57-76l-17-4c-11-2-21-4-32-7-14-2-22-10-26-23-4-13-8-25-13-37l-5-14c-12-35-47-54-83-45-18 5-35 10-52 15-14 4-24 2-35-9-10-10-21-20-32-30l-5-5c-15-13-32-21-49-21z m-109 87c13 0 25-5 35-15 13-12 26-24 39-36 22-21 49-20 70 0l6 5c10 10 21 19 31 30 16 15 34 19 55 13 17-5 34-10 51-14 26-7 50 6 59 32l5 14c5 12 9 24 12 35 7 21 21 34 43 38 10 2 20 4 31 7l17 4c28 6 44 27 41 55-2 16-4 32-7 49l-1 5c-3 21 3 39 20 52 13 11 26 22 39 33 23 20 26 47 8 72-6 8-13 17-19 25l-12 18c-11 15-14 31-6 49l20 49c12 30 3 54-26 69l-11 5c-11 6-22 12-34 17-18 8-29 23-31 43-2 18-4 35-5 52-1 29-22 49-50 49-18 0-37-1-55-2l-3 0c-18 0-33 8-44 25l-8 13c-7 10-13 21-21 31-17 26-42 31-69 16-16-8-31-17-46-26-16-9-33-9-49 0l-6 4c-15 8-29 16-44 24-23 13-50 6-65-16l-4-6c-5-6-9-12-12-18-19-40-49-56-88-45h-28c-27 0-48-20-50-47-1-13-2-25-3-38l-2-15c-2-21-12-35-30-44-17-8-34-16-51-25-23-13-32-38-22-63l3-5c6-16 12-31 18-47 8-18 5-35-7-52-10-14-21-28-31-42-17-24-13-51 9-70l8-7c10-9 20-17 30-25 18-14 25-32 21-55-3-17-6-35-8-53-3-27 13-49 41-54 10-2 19-4 29-7 7-1 14-3 21-4 20-5 34-17 40-37 3-8 6-16 9-24 2-7 5-15 7-22 6-17 19-38 47-38 6 0 12 1 19 3 16 4 33 9 50 14 5 1 10 2 14 2z m71 218c-8 0-16 4-22 11l-19 25c-30 37-59 74-88 111-11 15-16 30-12 44 3 14 15 26 33 34 11 5 22 3 33-6 19-17 38-33 57-50l16-14 144 166c3 3 6 7 10 10 6 7 13 8 18 8 5 0 10-1 14-5 9-5 16-12 24-18 11-9 13-22 6-35-3-5-5-10-9-14l-177-247c-3-4-5-7-7-9-6-7-13-11-21-11z m-96 208c-1 0-2-1-3-1-9-4-21-11-23-21-2-7 1-16 9-27 29-37 58-74 87-111l20-25c2-2 7-5 12 1 2 2 3 4 5 6l178 248c3 4 5 8 8 13 2 5 1 7-2 10-7 6-14 12-22 17-2 1-6 0-7-1-3-3-6-6-9-10l-157-180-31 27c-19 16-38 33-57 50-3 2-6 4-8 4z" horiz-adv-x="1000" />
<glyph glyph-name="arrow-right" unicode="&#xe816;" d="m510 41c-21 0-41 9-56 24-31 31-31 81 0 112l93 93-286 0c-44 0-80 36-80 80s36 80 80 80l286 0-93 92c-31 32-31 82 0 113 30 30 83 30 113 0l228-228c16-17 24-35 24-57s-8-41-24-57l-228-228c-15-15-35-24-57-24z m133 269l-161-161c-15-15-15-41 0-56 15-15 41-15 56 0l229 229c9 8 12 16 12 28s-3 20-12 28l-229 229c-15 15-41 15-56 0-15-16-15-41 0-56l161-161-382 0c-22 0-40-18-40-40s18-40 40-40l382 0z" horiz-adv-x="1000" />
<glyph glyph-name="idea" unicode="&#xe817;" d="m503-127c-56 0-101 33-101 75v10h196v-10c0-40-44-75-95-75z m-79 65c7-25 40-45 79-45 35 0 66 21 73 45h-152z m44 147c-1 0-1 0-1 0-14 0-29 0-43 0l-14 0c-11 0-14 8-15 12-5 27-15 54-33 88-8 15-16 30-24 44-10 17-19 34-28 50-12 24-28 56-34 92-9 59 4 115 40 165 53 74 147 110 233 88 94-23 152-83 173-179 8-39 4-80-14-126-13-34-31-66-48-97l-9-17c-15-27-30-55-40-84-2-8-4-16-6-23-3-11-10-13-16-13-19 0-38 0-57 0-2 0-7 0-12 4-4 4-4 10-4 12 1 29 1 58 1 88l-1 121c0 7 3 12 7 17 8 7 12 17 12 28-1 10-5 20-13 27-8 7-18 10-28 9-11 0-20-5-26-13-7-8-10-18-9-29 1-10 7-19 15-26 6-4 9-9 9-16-1-69-1-137 0-206 0-2 0-8-5-12-3-4-8-4-10-4z m91 20c9 0 18 0 27 0 2 8 4 15 6 22 11 31 26 60 42 88l9 16c16 31 33 62 46 95 17 42 21 79 13 114-19 88-72 144-158 165-78 19-163-13-212-81-32-45-45-96-36-150 4-26 14-52 32-85 9-17 18-33 27-50 8-15 17-30 25-45 18-34 28-61 34-89h10c13 0 26 0 39 0-1 68-1 135 0 202-14 10-22 24-24 40-2 16 3 31 13 43 10 13 24 20 40 21 16 1 31-4 43-14 12-11 19-26 20-42s-6-31-18-42c0-30 0-58 0-86v-38c0-28 0-56-1-84 8 0 16 0 23 0z m-474 258l-1 20 92 6 2-19-93-7z m830 5l-92 5 0 20 93-5-1-20z m-722 135l-87 32 6 19 87-32-6-19z m613 4l-7 18 87 33 7-18-87-33z m-545 112l-67 65 14 14 67-64-14-15z m477 2l-14 14 64 66 15-13-65-67z m-368 77l-35 86 19 7 35-86-19-7z m256 1l-18 8 33 86 19-7-34-87z m-104 25l-20 1 3 92 20-1-3-92z" horiz-adv-x="1000" />
<glyph glyph-name="trade" unicode="&#xe818;" d="m69 128v235l37 33c28 26 57 51 85 77 22 20 44 40 68 61l38 35 121-126 264 251-150 133h398v-377l-118 124-382-363-134 127-227-210z m20 226v-180l208 191 133-126 382 363 98-102v307h-325l127-112-295-280-121 126-24-22c-24-21-46-41-68-61-28-25-56-51-84-77l-31-27z m834-481h-141l-1 20c-1 6-1 13-1 19l0 68c0 161 0 321 0 481 0 10 3 20 7 29 1 4 2 7 3 11l4 16 36-32c32-28 61-54 89-80 7-7 12-18 12-28 0-162 0-324-1-486 0-4-1-6-3-9l-4-9z m-122 20h109c1 161 1 323 1 484 0 5-3 10-5 13-29 26-58 52-89 80l-12 11c-3-7-5-14-5-20 0-160 0-320 0-481v-68c0-6 0-12 1-18l0-1z m-41-18h-150l0 120c0 102 0 204 1 306 0 15 7 33 19 46 25 27 51 53 76 78l34 33 20-13v-570z m-130 20h111v536l-21-21c-25-24-51-50-75-76-8-9-14-23-14-33-1-102-1-204-1-306l0-100z m-40-21h-139l-3 5c-2 3-5 6-5 11 0 89-1 177 0 265 0 8 3 18 10 25 29 29 60 57 92 88l45 43v-437z m-127 20h107v370l-11-10c-33-31-63-60-93-88-2-2-3-7-3-11-1-87 0-174 0-261z m-55-20h-132v392l24 10 33-32c27-27 54-54 81-81 7-7 8-19 8-23 0-78-1-156-1-234l0-16c0-4-2-7-3-9l-3-5-7-2z m-112 20h105l0 12c0 78 1 156 1 234 0 5-2 8-2 9-27 27-54 54-81 81l-23 23 0 0v-359z m-50-14h-149l0 55c0 47 0 94 0 141 0 10 5 20 11 27 29 29 57 57 86 85l33 33 19-12v-329z m-129 20h109v291l-18-17c-29-28-57-56-85-85-3-3-6-9-6-13 0-47 0-94 0-141l0-35z" horiz-adv-x="1000" />
<glyph glyph-name="calendar" unicode="&#xe819;" d="m850-127c0 0 0 0 0 0-175 1-350 1-526 1l-175 0c-55 0-103 35-120 88-1 4-2 8-4 12l-1 8 0 622c1 5 2 9 4 14 20 67 80 102 153 90l-3-19c-62 10-114-20-131-77-1-4-2-8-4-12l2-620c1-4 2-8 3-12 14-45 55-74 101-74h175c176 0 351 0 526-1 49 0 96 37 105 87 0 2 1 3 2 5l-1 619c-2 4-3 8-4 12-14 45-54 74-101 74h-31v20h31c55 0 103-35 120-88 1-4 3-8 4-13l2-7-1-624c-12-61-66-105-126-105z m-117 176c-10 0-21 0-31 0-20 0-37 16-37 37 0 20 0 41 0 61 0 21 16 38 38 38 8 0 16 0 25 0h12c8 0 16 0 24 0 21 0 37-16 38-38 0-20 0-40 0-61-1-21-17-37-38-37-10 0-21 0-31 0z m-5 116l-25 0c-10 0-18-7-18-18 0-20 0-41 0-61 0-10 8-17 17-17 21 0 41 0 62 0 10 0 18 7 18 18 0 20 0 40 0 60 0 10-8 18-18 18l-36 0z m-461-116c-11 0-21 0-31 0-21 0-37 16-38 37 0 20 0 41 0 62 1 21 17 37 38 37 9 0 17 0 25 0h12c8 0 16 0 24 0 22 0 38-16 38-37 0-21 0-42 0-62s-17-37-37-37c-11 0-21 0-31 0z m-6 116l-25 0c-10 0-17-7-18-17 0-21 0-41 1-62 0-10 7-17 17-17 20 0 41 0 62 0 9 0 17 7 17 17 0 20 0 41 0 62 0 10-8 17-18 17l-36 0z m218-116c-3 0-6 0-10 0-21 0-37 16-37 37 0 21 0 41 0 61 0 22 17 38 38 38 20 0 40 0 60 0 22 0 38-16 38-38 0-20 0-40 0-60 0-22-16-38-38-38l-41 0c-3 0-6 0-10 0z m24 116c-11 0-22 0-33 0-11 0-18-7-18-18 0-20 0-40 0-61 0-10 7-17 18-17 6 0 13 0 19 0h41c11 0 18 7 18 18 0 20 0 40 0 60 0 11-7 18-18 18-9 0-18 0-27 0z m230 117c-10 0-20 0-30 0-21 0-38 17-38 38 0 20 0 40 0 61 0 21 16 37 37 37 8 1 15 1 23 1h9 8c7 0 15 0 22-1 21 0 38-16 38-38 0-20 0-40 0-60-1-22-17-38-38-38-11 0-21 0-31 0z m-8 117l-22-1c-10 0-18-7-18-17 0-21 0-41 0-61 0-10 8-18 18-18 20 0 40 0 60 0 11 0 18 8 19 18 0 20 0 40 0 60-1 11-8 18-19 18l-38 1z m-225-117c-10 0-21 0-31 0-21 0-37 17-37 38 0 20 0 40 0 61 0 21 16 37 37 37 21 1 42 1 62 0 21 0 37-16 37-37 0-7 0-14 0-21l0-11 0-9c0-7 0-13 0-20 0-22-16-38-38-38-10 0-20 0-30 0z m5 117c-12 0-24 0-36-1-10 0-17-7-17-18 0-20 0-40 0-60 0-10 7-18 17-18 21 0 41 0 61 0 11 0 18 8 18 18 0 7 0 13 0 20v9 11c0 7 0 14 0 21 0 10-8 17-17 18-9 0-17 0-26 0z m-238-117c-10 0-21 0-31 0-21 0-37 16-38 37 0 21 0 42 0 62 1 21 17 37 38 37 20 1 41 1 62 0 20 0 37-16 37-37v-21-10-10-20c0-21-17-38-38-38-10 0-20 0-30 0z m0 117c-11 0-21 0-31-1-10 0-17-7-18-17 0-20 0-41 0-61 1-10 8-18 18-18 21 0 41 0 61 0 10 0 18 8 18 18v60c0 11-8 18-17 18-11 1-21 1-31 1z m494 233h-57c-23 0-39 16-39 39l0 46c0 24 0 47 0 70 0 22 14 32 25 38l5 2 81-1c18-9 27-24 26-46-1-26-1-51-1-77l1-31c0-24-17-40-41-40z m-63 175c-10-6-13-11-13-20 0-23 0-46 0-70l0-46c0-12 7-19 19-19h57c13 0 21 7 21 20l-1 31c0 26 0 51 1 77 0 14-3 21-13 27h-71z m-403-175h-57c-23 0-39 16-40 39l0 32c0 28 1 56 0 84 0 22 15 32 26 38l4 2 81-1c19-9 27-24 26-46 0-26 0-51 0-76l0-32c0-24-16-40-40-40z m-64 175c-9-6-13-11-13-20 1-28 0-56 0-84l0-32c0-12 8-19 20-19h57c13 0 20 7 20 20l0 32c0 25 0 51 0 76 1 14-3 21-12 27h-72z m123-98h292v-20h-292v20z" horiz-adv-x="1000" />
<glyph glyph-name="milk" unicode="&#xe81a;" d="m655-127h-1c-37 0-74 1-112 1l-197-1c-44 0-75 32-75 76-1 134-1 269 0 403l-1 20c0 29 0 59 2 89 1 15 7 31 17 48 24 42 44 75 65 105 16 25 22 52 20 91-17 6-25 17-25 37-1 16-1 31 0 47 0 24 14 38 37 38l86 0c49 0 97 0 146-1 20 0 35-14 36-35 1-18 0-36 0-53-1-21-16-30-26-33-2-38 4-67 21-91 15-23 29-46 42-68 7-11 14-22 21-33 13-22 19-44 19-70l0-54c0-147 0-293 1-439 0-20-8-40-23-55-14-14-33-22-53-22z m-113 21c38 0 75-1 112-1l1-10v10c15 0 29 6 39 17 11 10 17 25 17 39-1 147-1 293-1 440l0 54c0 22-5 41-16 59-7 11-14 22-21 34-13 22-27 45-42 66-20 31-27 65-23 111l0 7 7 2c15 4 17 9 18 17 0 17 1 34 0 51 0 10-7 16-16 16-49 1-97 1-146 1l-86 0c-12 0-17-6-17-19-1-15-1-30 0-46 0-12 2-16 17-20l7-2 1-7c2-31 2-72-24-110-20-30-40-62-64-104-8-14-13-28-14-40-2-28-2-58-1-87l0-20c-1-134-1-269 0-403 0-32 23-56 55-56l197 1z" horiz-adv-x="1000" />
<glyph glyph-name="euro" unicode="&#xe81b;" d="m500-127c-263 0-477 214-477 477 0 263 214 477 477 477 263 0 477-214 477-477 0-263-214-477-477-477z m0 934c-252 0-457-205-457-457 0-252 205-457 457-457 252 0 457 205 457 457 0 252-205 457-457 457z m0-776c-176 0-319 143-319 319s143 319 319 319 319-143 319-319-143-319-319-319z m0 618c-165 0-299-134-299-299 0-165 134-299 299-299 165 0 299 134 299 299 0 165-134 299-299 299z m-100-313c0-3 0-6 0-8h-27c-1-4-2-8-2-12 0-5 1-8 2-12h30c6-34 19-59 39-77 21-17 48-26 81-26 14 0 27 2 39 4 13 3 24 6 33 11-1 4-2 8-4 11-1 4-3 8-5 12-7-4-16-7-26-9-10-3-22-4-34-4-24 0-45 6-61 19-16 12-27 32-32 59h117c1 4 1 8 1 13 0 3 0 7-1 11h-120c0 2 0 5 0 8v8c0 4 0 8 0 12 0 4 0 8 0 12h120c1 4 1 8 1 12 0 4 0 7-1 11h-116c5 25 15 45 30 58 15 13 35 20 59 20 10 0 21-1 31-2 11-2 21-4 29-7 2 4 3 8 4 12 1 3 2 7 2 12-5 1-13 3-24 6-11 2-25 3-42 3-33 0-60-9-80-26-20-17-33-43-39-76h-31c-1-3-2-7-2-12 0-4 1-8 2-11h28c0-4-1-8-1-12 0-4 0-8 0-12v-8z" horiz-adv-x="1000" />
<glyph glyph-name="award" unicode="&#xe81c;" d="m680 96h-359l22 18c5 4 9 7 13 10 7 5 12 9 17 14 26 23 39 51 40 80 1 31-14 61-41 88-39 40-79 77-132 101-44 20-82 55-121 92-30 29-46 70-47 119-2 43 12 79 38 106 26 27 62 42 105 42l12 0c0 1 1 2 1 3 11 54 15 58 73 58l202 0 196 0c58 0 62-4 73-58 0-1 1-2 1-3l12 0c43 0 80-15 106-42 26-27 39-63 38-106-2-49-18-90-48-119-38-37-77-72-121-92-53-24-93-61-132-100-27-28-41-58-41-89 1-29 14-57 40-80 5-5 11-9 17-14 4-3 8-6 13-10l23-18z m-301 20h242c-3 3-5 5-8 7-29 27-45 60-46 94 0 37 16 73 47 104 41 40 82 78 138 104 41 19 78 53 115 89 33 31 41 74 42 104 0 38-11 69-33 92-22 23-54 36-91 36h-25l-5 11c-1 3-2 5-2 7-9 43-9 43-54 43l-202 0-196 0c-45 0-45 0-53-42-1-3-2-5-3-8l-5-11h-25c-37 0-69-13-91-36-22-23-33-54-32-92 0-30 8-73 41-104 37-36 74-70 116-89 55-26 97-64 137-104 31-31 48-67 47-103-1-35-17-68-46-95-3-2-5-4-8-7z m238 291l-114 82-114-82 44 134-114 82h140l44 134 43-134h141l-114-82 44-134z m-237 196l76-55-29-89 76 55 76-55-29 89 75 55h-93l-29 90-29-90h-94z m361-131l5 62c3 46 7 89 12 134 1 12 18 26 29 27 23 2 43-7 57-24 14-18 19-43 13-69-15-60-61-96-99-119l-17-11z m52 203c-1 0-2 0-4 0-3 0-11-7-12-10-4-44-8-87-11-133l-2-21c42 29 64 58 73 96 5 19 2 38-9 52-8 10-21 16-35 16z m-534-203l-17 11c-38 23-83 58-98 119-7 26-2 51 12 69 14 17 34 26 57 24 11-1 28-15 30-27 4-45 8-88 11-134l5-62z m-52 203c-14 0-27-6-35-16-11-14-14-33-9-52 9-38 31-67 73-96l-2 21c-3 46-7 89-11 133-1 3-9 10-12 10-1 0-3 0-4 0z m492-802h-1c-30 1-60 1-89 1l-112 0-106 0c-29 0-59 0-89-1 0 0 0 0 0 0-12 0-26 2-34 12-9 10-7 24-5 34 9 41 16 84 22 125l2 11c4 25 18 37 42 37 114 0 228 0 342 0 24 0 38-12 42-37l2-11c7-41 13-84 22-125 2-10 4-24-4-34-9-10-23-12-34-12z m-90 21c29 0 59 0 89-1l1-10v10l0 0c12 0 17 2 18 4 1 2 3 6 0 18-8 42-15 84-22 126l-2 11c-2 15-8 20-22 20-114 0-228 0-342 0-14 0-20-5-22-20l-2-11c-7-42-14-84-22-126-3-12-1-16 0-18 1-2 6-4 18-4 31 1 61 1 90 1l112 0 106 0z" horiz-adv-x="1000" />
<glyph glyph-name="food" unicode="&#xe81d;" d="m911-61c-16 0-32 7-46 21-48 48-69 104-59 163 16 54 3 99-38 134-40 35-40 79-37 120 0 6 1 11 3 17l1 6c16 78 2 110-64 149-68 41-75 104-74 155 1 32 25 57 56 57 12 0 23-4 33-12 32-24 59-51 80-79 76-102 133-225 175-377 20-70 39-153 35-239-1-22-3-43-8-63-7-31-30-52-57-52z m-258 802c-17 0-35-14-36-37-2-69 18-110 65-138 72-43 90-84 73-170l-2-7c-1-4-2-9-2-13-3-40-3-75 31-104 46-40 61-92 44-154-9-50 10-100 53-144 11-10 22-15 33-15 17 0 31 14 37 37 4 18 7 38 7 59 4 83-15 164-34 232-42 152-96 270-172 371-19 27-45 52-76 76-6 4-14 7-21 7z m145-740l-71 3c-43 2-88 4-133 6-149 7-299 14-448 22-16 1-34 2-50 4-31 5-54 20-65 42-11 23-10 50 4 77 5 9 12 21 23 30 129 114 259 227 391 343l136 119 3-16c12-52 47-76 84-102l13-9c36-26 49-61 37-102-6-23-10-41-11-58-4-45 12-84 45-113 33-30 44-65 38-117-3-25-1-52 1-80 1-12 2-25 2-39l1-10z m-225 609l-111-97c-132-116-262-229-391-343-7-6-13-14-18-24-11-21-13-42-4-59 8-16 26-27 50-31 15-3 32-3 48-4 149-8 299-15 448-22 45-2 90-4 133-6l49-2c-1 9-1 18-2 27-2 29-4 56-1 83 6 46-4 74-32 100-37 33-55 78-51 129 1 19 5 38 12 62 9 33 0 60-30 81l-12 9c-35 24-71 49-88 97z m63-524l0 0c-3 0-7 0-10 1-17 3-32 12-43 27-10 15-14 33-11 50 6 36 41 61 77 54 17-3 32-13 42-28 10-15 14-33 10-51-6-30-34-53-65-53z m1 113c-22 0-42-17-46-38-2-12 1-25 9-35 7-11 17-17 29-19 24-4 48 13 52 36 3 13 0 26-7 36-7 10-17 17-29 20-2 0-5 0-8 0z m-293-98c0 0 0 0 0 0-5 0-11 1-17 2-54 9-91 60-83 114 8 54 60 94 116 85 27-4 51-19 67-41 16-22 22-49 18-75-8-48-51-85-101-85z m0 182c-40 0-75-30-80-69-7-43 23-84 66-92 45-8 88 24 95 67 3 21-2 43-14 60-13 18-32 30-54 33-4 1-9 1-13 1z m188 18l0 0c-2 0-4 0-6 0-16 2-29 9-37 21-9 11-12 26-10 40 4 29 30 49 59 46 15-2 28-10 37-21 9-12 12-26 10-41-4-26-26-45-53-45z m0 87c-17 0-31-12-33-29-2-9 0-18 6-25 5-7 13-12 23-13 18-2 35 10 37 28 2 9-1 18-6 26-6 7-14 12-23 13-2 0-3 0-4 0z" horiz-adv-x="1000" />
<glyph glyph-name="third" unicode="&#xe81e;" d="m649-56c-22 0-42 1-59 2-17 1-34 3-50 6-17 3-33 7-49 12-16 5-34 11-54 17l-7 3 0 7c2 24 6 48 13 71 7 23 16 44 27 63l4 6 8-2c27-9 54-16 77-22 24-5 51-8 83-8 22 0 43 2 63 8 20 5 37 13 51 23 14 11 25 24 34 40 8 16 12 36 12 60 0 16-3 30-10 42-7 13-17 23-29 31-12 8-26 14-42 17-29 7-59 7-91 5-12 0-24-3-36-6l-7-2-18 28 141 256h-232l-2 8c-4 23-6 46-6 68 0 24 2 48 6 71l2 8h471l17-29-170-284c25-2 48-7 68-17 24-12 45-27 62-46 16-19 29-41 38-66 8-24 13-49 13-75 0-48-9-91-25-127-17-37-40-68-70-93-29-25-64-44-104-56-39-12-82-19-129-19z m-198 54c17-6 32-11 46-15 15-4 31-8 46-11 16-3 32-5 48-6 17-1 36-2 58-2 45 0 86 6 123 18 37 12 70 29 97 52 28 23 49 52 64 86 16 34 24 74 24 119 0 23-4 46-12 69-8 22-20 41-35 59-14 16-33 30-54 41-22 10-46 15-73 15h-22l182 304-5 9h-443c-4-19-5-39-5-59 0-18 1-37 5-56h249l-152-275 4-6c11 3 22 5 33 5 34 2 66 2 96-5 18-4 35-11 49-21 14-9 26-22 35-37 9-15 13-32 13-52 0-27-5-50-14-69s-24-35-40-47c-16-12-35-21-58-27-21-5-44-8-68-8-33 0-63 3-87 9-22 5-46 12-72 20-8-16-15-33-21-52-5-19-9-39-11-58z m-147 109c-7 0-14 1-21 1-6 0-13 1-21 3l-9 1 10 115h-61l-9-115-8-1c-8-2-15-3-22-3-12-1-27-1-41 0-7 0-14 1-22 3l-9 1 9 115h-72l-2 9c-2 10-3 22-3 36 0 6 1 13 1 19 1 6 2 12 3 18l1 9h80l5 60h-72l-2 9c0 6-1 12-2 18-1 6-1 13-1 19 0 7 0 13 1 19 1 6 2 12 2 18l2 9h80l8 99 8 1c7 1 14 2 21 3 13 1 28 1 42 0 7-1 14-2 21-3l9-2-9-98h61l9 99 7 1c8 1 15 2 22 3 12 1 27 1 42 0 6-1 13-2 21-3l9-2-9-98h68l4-26c0-6 1-12 1-18 0-7-1-13-1-20-1-6-2-13-3-19l-1-9h-75l-5-60h67l4-26c1-6 1-12 1-19 0-6 0-13-1-19-1-6-2-12-2-18l-2-9h-74l-9-115-8-1c-8-2-15-3-22-3-7 0-14-1-21-1z m-29 22c3 0 7-1 10-1 12-1 26-1 39 0 4 0 8 1 12 1l9 118h76c0 3 1 6 1 9 1 6 1 11 1 17 0 6 0 11-1 16l-1 9h-71l8 100h76c0 4 0 7 1 10 0 6 1 12 1 18 0 5-1 11-1 15l-1 9h-72l8 102c-3 0-6 1-10 1-13 1-27 1-39 0-3 0-7-1-12-2l-8-101h-102l9 102c-3 0-6 1-9 1-14 1-28 1-40 0-3 0-7-1-11-1l-9-102h-81c0-3-1-6-1-9-1-5-1-11-1-17 0-6 0-11 1-17 0-3 1-6 1-9h77l-9-100h-81c0-3 0-6-1-9 0-6-1-11-1-17 0-9 1-17 2-25h77l-9-118c3 0 7-1 10-1 13-1 27-1 39 0 4 0 8 1 12 1l10 118h100l-9-118z m14 169h-102l9 100h101l-8-100z m-80 20h61l5 60h-61l-5-60z" horiz-adv-x="1000" />
<glyph glyph-name="r-and-d" unicode="&#xe81f;" d="m355-127l0 0c-30 0-54 24-54 54l0 148-176-176c-10-10-24-16-38-16l0 0c-14 0-28 6-38 16-21 21-21 55 0 76l176 176h-148c-29 0-54 24-54 54 0 29 24 53 54 53h278c14 0 27-5 38-16 10-10 15-23 15-38v-277c0-30-24-54-53-54z m-34 250l0-196c0-19 15-34 34-34 18 0 33 15 33 34v277c0 10-3 18-10 24-6 7-14 10-23 10h-278c-19 0-34-15-34-33 0-19 15-34 34-34h196l-210-210c-13-13-13-35 0-48 7-6 15-10 24-10l0 0c9 0 18 4 24 10l210 210z m179 150c-42 0-77 35-77 77 0 42 35 77 77 77 42 0 77-35 77-77 0-42-35-77-77-77z m0 134c-31 0-57-26-57-57s26-57 57-57c31 0 57 26 57 57s-26 57-57 57z m0-334h-10v120h10c86 0 157 71 157 157s-71 157-157 157c-86 0-157-71-157-157v-10h-120v10c0 153 124 277 277 277 153 0 277-124 277-277 0-152-124-277-277-277z m10 101v-80c137 5 247 118 247 256 0 142-115 257-257 257-138 0-251-110-256-247h80c5 93 82 167 176 167 97 0 177-80 177-177 0-94-74-171-167-176z m-10-301h-10v120h10c197 0 357 160 357 357 0 197-160 357-357 357-197 0-357-160-357-357v-10h-120v10c0 263 214 477 477 477 263 0 477-214 477-477 0-263-214-477-477-477z m10 100v-80c247 6 447 209 447 457 0 252-205 457-457 457-248 0-451-200-457-447h81c5 203 172 367 376 367 208 0 377-169 377-377 0-204-164-371-367-377z" horiz-adv-x="1000" />
<glyph glyph-name="big-milk" unicode="&#xe820;" d="m245-127c-20 0-49 4-61 34-7 17-9 43 21 66 1 2 4 8 4 14 1 57 0 114 0 170l0 57c0 23 0 47 0 70-1 58-1 118 2 178 2 32 15 65 30 98 7 14 6 17-3 24-19 15-38 32-62 55-26 25-29 56-7 80 19 20 49 20 75-3 17-15 34-30 50-45l14-12 2 11c5 18 11 37 14 56 0 0-5 4-7 6-17 19-22 40-14 60 8 22 27 35 52 35l120 0 170 0c25 0 42-11 51-32 9-21 5-41-11-61-5-6-8-15-7-20 3-14 7-29 13-45 0-3 1-6 2-9 4 4 9 8 13 12 18 16 34 31 52 44 11 9 30 18 46 16 14-2 30-17 37-30 10-20 5-43-13-60-25-23-45-42-68-60-8-7-9-9-2-19 22-32 33-70 33-116-1-155-1-307 0-452 0-9 4-20 9-25 14-15 28-35 17-62-7-16-21-34-55-34l-413 0c-34 0-69 0-103-1h-1z m-43 841c-7 0-13-3-18-9-15-15-12-34 5-51 24-23 43-40 61-54 19-16 18-30 10-48-15-32-28-62-29-91-3-59-3-119-2-177 0-23 0-46 0-70l0-57c0-56 1-113 0-170 0-10-4-23-12-29-22-18-19-33-15-43 6-15 19-22 43-22v-10l1 10c34 0 69 1 103 1l181-1 232 0c19 0 30 7 36 22 6 14 2 25-12 41-9 10-15 25-15 39-1 145-1 297 0 452 0 42-10 76-30 105-12 18-10 32 7 46 22 18 42 36 66 59 11 10 15 24 9 36-5 9-15 18-22 19-10 0-22-5-31-12-17-13-33-27-51-43-8-7-16-15-24-22l-12-11-5 16c-2 8-4 15-7 23-5 17-10 32-13 48-2 12 4 27 11 36 12 14 15 26 9 40-6 14-16 20-34 20l-169 0-120 0c-17 0-28-7-33-22-6-13-3-26 9-38 7-7 15-15 13-25-4-19-9-39-14-57l-7-26-21-1-21 18c-17 15-33 30-50 45-10 8-20 13-29 13z" horiz-adv-x="1000" />
</font>
</defs>
</svg>
