<?xml version="1.0" encoding="utf-8"?>
<!-- Generator: Adobe Illustrator 16.0.4, SVG Export Plug-In . SVG Version: 6.00 Build 0)  -->
<!DOCTYPE svg PUBLIC "-//W3C//DTD SVG 1.1 Tiny//EN" "http://www.w3.org/Graphics/SVG/1.1/DTD/svg11-tiny.dtd">
<svg version="1.1" baseProfile="tiny" id="Layer_1" xmlns="http://www.w3.org/2000/svg" xmlns:xlink="http://www.w3.org/1999/xlink"
	 x="0px" y="0px" width="169px" height="60px" viewBox="0 0 169 60" xml:space="preserve">
<g>
	<g>
		<path fill="#FFFFFF" d="M11.322,52.706h-2.15c-0.049-0.24-0.072-0.492-0.072-0.758c0-0.248,0.023-0.492,0.072-0.732h6.069
			c0.047,0.24,0.071,0.484,0.071,0.732c0,0.266-0.024,0.518-0.071,0.758h-2.151v7.15c-0.145,0.017-0.289,0.03-0.433,0.043
			c-0.145,0.012-0.285,0.019-0.422,0.019c-0.136,0-0.282-0.005-0.438-0.013c-0.156-0.009-0.314-0.023-0.475-0.049V52.706z"/>
		<path fill="#FFFFFF" d="M16.454,51.216c0.297-0.048,0.589-0.072,0.877-0.072c0.289,0,0.585,0.024,0.89,0.072v3.391h2.896v-3.391
			c0.296-0.048,0.589-0.072,0.877-0.072c0.289,0,0.585,0.024,0.89,0.072v8.641c-0.305,0.049-0.597,0.072-0.877,0.072
			c-0.297,0-0.594-0.023-0.89-0.072v-3.738H18.22v3.738c-0.305,0.049-0.598,0.072-0.878,0.072c-0.295,0-0.592-0.023-0.889-0.072
			V51.216z"/>
		<path fill="#FFFFFF" d="M24.566,51.216h4.903c0.048,0.24,0.072,0.484,0.072,0.732c0,0.266-0.024,0.518-0.072,0.758h-3.148v1.874
			h2.5c0.048,0.257,0.072,0.507,0.072,0.746c0,0.257-0.024,0.509-0.072,0.757h-2.5v2.283h3.232c0.048,0.24,0.072,0.486,0.072,0.733
			c0,0.265-0.024,0.518-0.072,0.757h-4.987V51.216z"/>
		<path fill="#FFFFFF" d="M33.591,51.216c0.296-0.048,0.589-0.072,0.877-0.072c0.289,0,0.585,0.024,0.89,0.072v3.391h2.896v-3.391
			c0.296-0.048,0.589-0.072,0.877-0.072s0.585,0.024,0.89,0.072v8.641c-0.305,0.049-0.597,0.072-0.877,0.072
			c-0.297,0-0.594-0.023-0.89-0.072v-3.738h-2.896v3.738c-0.305,0.049-0.597,0.072-0.877,0.072c-0.297,0-0.594-0.023-0.89-0.072
			V51.216z"/>
		<path fill="#FFFFFF" d="M45.225,60c-0.649,0-1.21-0.111-1.683-0.335c-0.473-0.226-0.861-0.535-1.166-0.933
			c-0.305-0.396-0.531-0.865-0.68-1.405c-0.147-0.541-0.222-1.132-0.222-1.772c0-0.642,0.074-1.236,0.222-1.784
			c0.148-0.549,0.375-1.024,0.68-1.425c0.305-0.401,0.693-0.714,1.166-0.938c0.473-0.225,1.033-0.337,1.683-0.337
			c0.648,0,1.21,0.112,1.682,0.337c0.473,0.224,0.861,0.536,1.165,0.938c0.306,0.4,0.531,0.876,0.68,1.425
			c0.148,0.548,0.223,1.143,0.223,1.784c0,0.641-0.074,1.231-0.223,1.772c-0.148,0.54-0.374,1.009-0.68,1.405
			c-0.304,0.397-0.692,0.707-1.165,0.933C46.435,59.889,45.874,60,45.225,60z M45.225,58.534c1.241,0,1.861-0.992,1.861-2.979
			c0-0.993-0.149-1.739-0.449-2.236c-0.302-0.496-0.768-0.745-1.4-0.745c-1.258,0-1.887,0.993-1.887,2.981
			C43.35,57.542,43.975,58.534,45.225,58.534z"/>
		<path fill="#FFFFFF" d="M50.668,51.216c0.32-0.048,0.629-0.072,0.926-0.072c0.312,0,0.621,0.024,0.926,0.072l1.983,4.951
			l2.042-4.951c0.249-0.048,0.525-0.072,0.83-0.072s0.596,0.024,0.877,0.072l0.408,8.641c-0.305,0.049-0.593,0.072-0.865,0.072
			c-0.271,0-0.54-0.023-0.805-0.072l-0.217-5.864l-1.755,4.062c-0.111,0.017-0.228,0.031-0.348,0.043s-0.241,0.019-0.36,0.019
			c-0.104,0-0.208-0.005-0.312-0.013s-0.213-0.023-0.324-0.049l-1.636-4.146l-0.168,5.949c-0.256,0.049-0.504,0.072-0.745,0.072
			c-0.257,0-0.521-0.023-0.793-0.072L50.668,51.216z"/>
		<path fill="#FFFFFF" d="M60.248,51.216h4.903c0.048,0.24,0.072,0.484,0.072,0.732c0,0.266-0.024,0.518-0.072,0.758h-3.149v1.874
			h2.5c0.049,0.257,0.072,0.507,0.072,0.746c0,0.257-0.023,0.509-0.072,0.757h-2.5v2.283h3.232c0.05,0.24,0.073,0.486,0.073,0.733
			c0,0.265-0.023,0.518-0.073,0.757h-4.986V51.216z"/>
		<path fill="#FFFFFF" d="M72.793,60c-0.648,0-1.21-0.111-1.683-0.335c-0.473-0.226-0.86-0.535-1.166-0.933
			c-0.304-0.396-0.53-0.865-0.678-1.405c-0.148-0.541-0.223-1.132-0.223-1.772c0-0.642,0.074-1.236,0.223-1.784
			c0.147-0.549,0.374-1.024,0.678-1.425c0.306-0.401,0.693-0.714,1.166-0.938c0.473-0.225,1.034-0.337,1.683-0.337
			c0.649,0,1.21,0.112,1.683,0.337c0.473,0.224,0.861,0.536,1.166,0.938c0.305,0.4,0.53,0.876,0.679,1.425
			c0.148,0.548,0.223,1.143,0.223,1.784c0,0.641-0.074,1.231-0.223,1.772c-0.148,0.54-0.374,1.009-0.679,1.405
			c-0.305,0.397-0.693,0.707-1.166,0.933C74.003,59.889,73.443,60,72.793,60z M72.793,58.534c1.242,0,1.862-0.992,1.862-2.979
			c0-0.993-0.149-1.739-0.45-2.236c-0.3-0.496-0.767-0.745-1.399-0.745c-1.258,0-1.887,0.993-1.887,2.981
			C70.919,57.542,71.544,58.534,72.793,58.534z"/>
		<path fill="#FFFFFF" d="M77.998,51.216h4.903c0.049,0.24,0.072,0.484,0.072,0.732c0,0.266-0.023,0.518-0.072,0.758h-3.149v2.031
			h2.5c0.048,0.257,0.072,0.504,0.072,0.745c0,0.257-0.024,0.508-0.072,0.756h-2.5v3.618c-0.304,0.049-0.593,0.072-0.864,0.072
			c-0.297,0-0.593-0.023-0.89-0.072V51.216z"/>
		<path fill="#FFFFFF" d="M86.735,51.216c0.296-0.048,0.589-0.072,0.877-0.072s0.585,0.024,0.89,0.072v8.641
			c-0.305,0.049-0.598,0.072-0.878,0.072c-0.296,0-0.593-0.023-0.889-0.072V51.216z"/>
		<path fill="#FFFFFF" d="M90.267,51.216c0.353-0.04,0.684-0.074,0.992-0.102c0.309-0.029,0.65-0.043,1.027-0.043
			c0.44,0,0.875,0.04,1.304,0.12s0.816,0.223,1.16,0.427c0.345,0.205,0.623,0.481,0.835,0.83c0.213,0.349,0.319,0.791,0.319,1.328
			c0,0.319-0.041,0.603-0.121,0.848c-0.079,0.243-0.182,0.458-0.306,0.643c-0.125,0.185-0.259,0.342-0.403,0.474
			c-0.145,0.134-0.28,0.239-0.408,0.318l-0.204,0.132l2.103,3.654c-0.159,0.016-0.328,0.032-0.505,0.048
			c-0.176,0.017-0.355,0.025-0.54,0.025c-0.306,0-0.605-0.025-0.901-0.073l-2.26-4.014l0.288-0.146
			c0.112-0.055,0.249-0.128,0.409-0.215c0.16-0.089,0.314-0.199,0.463-0.331s0.274-0.292,0.378-0.48
			c0.104-0.188,0.156-0.41,0.156-0.667c0-0.505-0.144-0.875-0.432-1.112c-0.289-0.235-0.662-0.354-1.118-0.354
			c-0.177,0-0.337,0.012-0.481,0.036v7.294c-0.144,0.017-0.288,0.03-0.433,0.043c-0.144,0.012-0.284,0.019-0.421,0.019
			c-0.136,0-0.28-0.005-0.433-0.013c-0.152-0.009-0.309-0.023-0.469-0.049V51.216z"/>
		<path fill="#FFFFFF" d="M97.527,51.216c0.296-0.048,0.589-0.072,0.877-0.072c0.289,0,0.585,0.024,0.89,0.072v8.641
			c-0.305,0.049-0.597,0.072-0.877,0.072c-0.297,0-0.594-0.023-0.89-0.072V51.216z"/>
		<path fill="#FFFFFF" d="M102.55,55.854c-0.272-0.104-0.518-0.217-0.732-0.343c-0.217-0.125-0.401-0.271-0.554-0.443
			s-0.271-0.38-0.354-0.62c-0.084-0.239-0.125-0.528-0.125-0.864c0-0.409,0.069-0.77,0.209-1.082
			c0.141-0.312,0.338-0.575,0.595-0.787c0.257-0.213,0.565-0.373,0.926-0.481c0.36-0.107,0.766-0.162,1.214-0.162
			c0.408,0,0.791,0.036,1.147,0.108c0.357,0.072,0.731,0.177,1.124,0.312c-0.048,0.465-0.177,0.922-0.385,1.37
			c-0.12-0.048-0.242-0.096-0.367-0.144c-0.124-0.048-0.256-0.089-0.396-0.12c-0.14-0.032-0.298-0.059-0.475-0.079
			c-0.176-0.02-0.377-0.03-0.601-0.03c-0.137,0-0.274,0.013-0.414,0.037c-0.141,0.023-0.268,0.067-0.38,0.132
			c-0.111,0.063-0.203,0.158-0.275,0.282s-0.108,0.287-0.108,0.487c0,0.16,0.028,0.293,0.084,0.401
			c0.056,0.109,0.133,0.201,0.229,0.276c0.096,0.077,0.204,0.141,0.324,0.193c0.121,0.053,0.24,0.101,0.361,0.149l0.721,0.276
			c0.305,0.12,0.581,0.245,0.829,0.373s0.459,0.286,0.631,0.476c0.173,0.187,0.307,0.416,0.402,0.684
			c0.097,0.27,0.145,0.6,0.145,0.991c0,0.409-0.074,0.781-0.223,1.118c-0.147,0.337-0.362,0.625-0.643,0.865
			c-0.28,0.241-0.627,0.429-1.04,0.565c-0.412,0.136-0.887,0.203-1.424,0.203c-0.264,0-0.501-0.007-0.709-0.023
			c-0.209-0.016-0.407-0.042-0.595-0.077c-0.188-0.036-0.374-0.082-0.559-0.139s-0.377-0.123-0.576-0.205
			c0.023-0.231,0.067-0.474,0.132-0.726c0.063-0.253,0.14-0.508,0.228-0.765c0.337,0.137,0.653,0.239,0.949,0.307
			c0.297,0.068,0.613,0.103,0.95,0.103c0.504,0,0.901-0.095,1.189-0.283c0.288-0.188,0.433-0.474,0.433-0.859
			c0-0.19-0.034-0.353-0.102-0.479c-0.068-0.128-0.156-0.235-0.265-0.324s-0.23-0.163-0.366-0.222
			c-0.137-0.062-0.277-0.119-0.421-0.176L102.55,55.854z"/>
		<path fill="#FFFFFF" d="M107.586,51.216c0.296-0.048,0.589-0.072,0.877-0.072s0.584,0.024,0.89,0.072v3.391h2.896v-3.391
			c0.296-0.048,0.589-0.072,0.877-0.072c0.289,0,0.585,0.024,0.89,0.072v8.641c-0.305,0.049-0.597,0.072-0.878,0.072
			c-0.296,0-0.593-0.023-0.889-0.072v-3.738h-2.896v3.738c-0.306,0.049-0.599,0.072-0.879,0.072c-0.295,0-0.592-0.023-0.888-0.072
			V51.216z"/>
		<path fill="#FFFFFF" d="M118.377,51.216c0.337-0.04,0.689-0.074,1.058-0.102c0.368-0.029,0.776-0.043,1.226-0.043
			c1.515,0,2.667,0.377,3.456,1.13c0.789,0.754,1.184,1.883,1.184,3.391c0,1.513-0.4,2.626-1.201,3.34
			c-0.802,0.713-1.992,1.068-3.57,1.068c-0.409,0-0.785-0.013-1.13-0.041s-0.685-0.062-1.021-0.103V51.216z M120.144,58.462
			c0.072,0.01,0.164,0.018,0.276,0.024c0.112,0.009,0.248,0.012,0.408,0.012c0.369,0,0.712-0.041,1.028-0.126
			c0.316-0.084,0.591-0.237,0.823-0.463c0.232-0.225,0.417-0.523,0.553-0.9c0.137-0.377,0.205-0.861,0.205-1.454
			c0-0.577-0.068-1.058-0.205-1.442c-0.136-0.385-0.32-0.689-0.553-0.914c-0.232-0.224-0.499-0.382-0.799-0.474
			c-0.301-0.093-0.619-0.139-0.956-0.139c-0.112,0-0.242,0.002-0.391,0.006s-0.278,0.015-0.391,0.03V58.462z"/>
		<path fill="#FFFFFF" d="M128.461,51.216c0.168-0.024,0.327-0.042,0.48-0.054c0.151-0.012,0.32-0.019,0.505-0.019
			c0.16,0,0.315,0.007,0.469,0.019c0.151,0.012,0.319,0.029,0.504,0.054l2.705,8.641c-0.329,0.049-0.649,0.072-0.962,0.072
			c-0.305,0-0.601-0.023-0.89-0.072l-0.48-1.729h-2.86l-0.493,1.729c-0.288,0.049-0.564,0.072-0.829,0.072
			c-0.296,0-0.588-0.023-0.877-0.072L128.461,51.216z M130.383,56.672l-0.997-3.63l-1.046,3.63H130.383z"/>
		<path fill="#FFFFFF" d="M134.097,51.216c0.297-0.048,0.59-0.072,0.878-0.072s0.584,0.024,0.889,0.072v8.641
			c-0.305,0.049-0.597,0.072-0.877,0.072c-0.296,0-0.593-0.023-0.89-0.072V51.216z"/>
		<path fill="#FFFFFF" d="M137.63,51.216c0.353-0.04,0.683-0.074,0.991-0.102c0.309-0.029,0.651-0.043,1.028-0.043
			c0.44,0,0.875,0.04,1.304,0.12s0.815,0.223,1.16,0.427c0.345,0.205,0.622,0.481,0.835,0.83c0.212,0.349,0.318,0.791,0.318,1.328
			c0,0.319-0.04,0.603-0.12,0.848c-0.08,0.243-0.183,0.458-0.307,0.643s-0.258,0.342-0.403,0.474
			c-0.144,0.134-0.28,0.239-0.408,0.318l-0.204,0.132l2.103,3.654c-0.159,0.016-0.328,0.032-0.504,0.048
			c-0.176,0.017-0.356,0.025-0.54,0.025c-0.306,0-0.605-0.025-0.902-0.073l-2.26-4.014l0.289-0.146
			c0.112-0.055,0.248-0.128,0.408-0.215c0.161-0.089,0.314-0.199,0.463-0.331s0.274-0.292,0.379-0.48s0.156-0.41,0.156-0.667
			c0-0.505-0.145-0.875-0.433-1.112c-0.289-0.235-0.662-0.354-1.118-0.354c-0.176,0-0.336,0.012-0.48,0.036v7.294
			c-0.145,0.017-0.289,0.03-0.434,0.043c-0.144,0.012-0.284,0.019-0.42,0.019c-0.137,0-0.28-0.005-0.433-0.013
			c-0.152-0.009-0.309-0.023-0.469-0.049V51.216z"/>
		<path fill="#FFFFFF" d="M146.62,56.77l-2.692-5.554c0.337-0.048,0.674-0.072,1.011-0.072c0.304,0,0.608,0.024,0.912,0.072
			l1.708,3.918l1.683-3.918c0.296-0.048,0.601-0.072,0.913-0.072c0.287,0,0.597,0.024,0.925,0.072l-2.691,5.554v3.1
			c-0.161,0.023-0.312,0.04-0.457,0.049c-0.145,0.007-0.289,0.011-0.434,0.011c-0.136,0-0.277-0.004-0.426-0.011
			c-0.148-0.009-0.299-0.025-0.451-0.049V56.77z"/>
	</g>
	<path fill="#FFFFFF" d="M20.344,0C9.364,0,0.463,8.107,0.463,19.493c0,11.458,8.9,19.499,19.881,19.499
		c10.976,0,19.878-8.041,19.878-19.499C40.222,8.107,31.32,0,20.344,0z M20.344,30.738c-6.182,0-11.184-5.03-11.184-11.245
		c0-6.211,5.002-11.246,11.184-11.246c6.173,0,11.186,5.035,11.186,11.246C31.53,25.708,26.517,30.738,20.344,30.738z"/>
	<path fill="#FFFFFF" d="M127.176,39.032V6.191H118.9v18.853c0,3.215-2.209,6.664-6.665,6.664c-3.051,0-5.518-2.498-5.518-5.995
		V6.191h-8.276v20.254c0,4.84,1.398,7.872,3.601,9.832c2.07,1.841,4.545,2.755,7.039,2.755c2.958,0,5.273-0.611,6.957-1.699
		c1.338-0.864,2.538-1.828,3.285-3.004C120.226,37.717,122.405,39.032,127.176,39.032z"/>
	<path fill="#FFFFFF" d="M83.345,5.646c3.264,0,6.411,1.373,8.226,3.237c2.271,2.333,3.154,5.498,3.154,8.396v20.794h-8.487V18.973
		c0-3.116-2.189-5.776-5.834-5.776c-2.542,0-4.372,1.122-5.539,3.484c-0.608,1.231-0.81,2.869-0.81,4.825v16.568h-8.277V5.863
		c4.271,0,6.479,1.519,7.925,4.62c0.808-1.214,1.717-2.1,3.037-3.027C78.589,6.157,80.857,5.646,83.345,5.646z"/>
	<path fill="#FFFFFF" d="M54.563,7.643c-1.355,1.014-2.528,2.374-3.304,4.136c-0.276-2.587-2.018-6.132-7.959-6.132v32.427h8.401
		V22.263c0-2.052,0.429-3.752,1.373-5.046c1.378-1.887,3.723-2.912,6.345-2.912c0.832,0,1.648,0.045,2.401,0.149V5.771
		c-0.351-0.081-0.735-0.125-1.118-0.125C58.184,5.646,56.314,6.335,54.563,7.643z"/>
	<path fill="#FFFFFF" d="M157.764,15.948c-0.285-2.744-0.978-4.762-2.311-6.506c-2.124-2.782-5.213-4.07-9.968-4.07
		c-4.708,0-8.646,0.571-13.341,2.435v7.722c4.151-2.031,8.376-2.903,11.975-2.903c3.673,0,5.123,1.196,5.123,2.484
		c0,1.016-0.553,1.737-1.661,2.118c-1.132,0.389-2.564,0.692-5.843,1.25c-2.948,0.501-5.15,1.192-7.343,2.431
		c-3.061,1.729-4.666,4.595-4.666,8.633c0,3.017,0.941,5.364,2.837,7.008c1.892,1.649,4.296,2.474,7.195,2.474
		c2.281,0,4.323-0.522,6.12-1.546c1.508-0.886,3.088-2.125,4.001-3.195c1.14,3.194,2.647,4.71,8.041,4.71v-9.068v-8.954
		c-2.934,0.629-7.408,1.67-8.057,2.078c0,3.472-0.686,5.644-2.562,7.402c-1.239,1.16-2.869,1.878-5.118,1.878
		c-2.445,0-3.946-1.234-3.946-3.551c0-3.271,2.889-5.145,7.08-6.9c2.468-1.033,5.251-1.866,8.002-2.562
		c3.996-1.009,9.688-1.983,15.214-2.637v-0.016C165.497,15.8,161.257,15.554,157.764,15.948z"/>
</g>
</svg>
